<svg xmlns:xlink="http://www.w3.org/1999/xlink" width="123" height="21" fill="none" xmlns="http://www.w3.org/2000/svg"><path fill-rule="evenodd" clip-rule="evenodd" d="M89.657 6.64886V8.33296C89.8792 7.71922 90.2575 7.25305 90.793 6.93273C91.3277 6.61327 91.9412 6.45267 92.6338 6.45267V9.2731C91.8631 9.16893 91.1714 9.32519 90.5587 9.74361C89.9581 10.1481 89.6578 10.8209 89.6578 11.761V16.4418H87.1322V6.64973H89.657V6.64886ZM56.0266 11.5449C56.0266 10.0613 57.2286 8.85902 58.7119 8.85902C60.1951 8.85902 61.3972 10.0613 61.3972 11.5449C61.3972 13.0285 60.1951 14.2308 58.7119 14.2308C57.2286 14.2308 56.0266 13.0285 56.0266 11.5449ZM58.7127 16.7152C61.5681 16.7152 63.882 14.4 63.882 11.5449C63.882 8.68975 61.5681 6.37455 58.7127 6.37455C55.8582 6.37455 53.5436 8.68975 53.5436 11.5449C53.5436 14.4009 55.8582 16.7152 58.7127 16.7152ZM108.976 6.37455C110.06 6.37455 110.941 6.73394 111.62 7.45185C112.325 8.18278 112.677 9.17501 112.677 10.4285V16.4409H110.152V10.7419C110.152 10.1021 109.979 9.60558 109.633 9.25313C109.286 8.90069 108.813 8.72447 108.213 8.72447C107.547 8.72447 107.022 8.93021 106.637 9.34168C106.251 9.75316 106.06 10.3565 106.06 11.1534V16.4409H103.534V3.45776H106.06V7.74613C106.659 6.83203 107.632 6.37455 108.976 6.37455ZM118.125 13.2299L120.298 6.64973H123L119.436 16.4418C118.927 17.8516 118.252 18.8733 117.41 19.507C116.568 20.1399 115.52 20.4237 114.267 20.3586V18.0087C114.933 18.0217 115.468 17.8785 115.873 17.5781C116.277 17.2778 116.598 16.7942 116.832 16.1284L112.818 6.64973H115.579L118.125 13.2299ZM98.3412 6.37542C95.4867 6.37542 93.172 8.69062 93.172 11.5458C93.172 14.4009 95.4867 16.7161 98.3412 16.7161C99.9624 16.7161 101.409 15.9696 102.357 14.8011L100.583 13.0259C100.102 13.7524 99.2776 14.2316 98.342 14.2316C96.8588 14.2316 95.6568 13.0293 95.6568 11.5458C95.6568 10.0622 96.8588 8.85989 98.342 8.85989C99.2785 8.85989 100.103 9.33908 100.583 10.0657L102.357 8.29043C101.409 7.12198 99.9633 6.37542 98.3412 6.37542ZM80.7618 6.37542C77.9073 6.37542 75.5927 8.69062 75.5927 11.5458C75.5927 14.4009 77.9073 16.7161 80.7618 16.7161C82.1895 16.7161 83.4819 16.1371 84.4166 15.2022L82.6608 13.446C82.1748 13.9321 81.5039 14.2325 80.7618 14.2325C79.5919 14.2325 78.5982 13.4851 78.2293 12.4416H83.2943H84.8713H85.8539C85.9042 12.1508 85.9311 11.8522 85.9311 11.5466C85.9311 8.68975 83.6164 6.37542 80.7618 6.37542ZM78.2293 10.6499C78.5982 9.60645 79.5919 8.85902 80.7618 8.85902C81.9309 8.85902 82.9263 9.60645 83.2943 10.6499H78.2293ZM41.3096 8.29476L44.0018 12.7229L45.3236 14.8983L46.5196 12.9243L49.3368 8.27566V16.4418H52.0195V3.45776H49.2397L45.3236 9.93979L41.3877 3.45776H38.6078V16.4418H41.3096V8.29476ZM70.7116 6.37455C71.7947 6.37455 72.6765 6.73394 73.3552 7.45185C74.0599 8.18278 74.4122 9.17501 74.4122 10.4285V16.4409H71.8867V10.7419C71.8867 10.1021 71.714 9.60558 71.3677 9.25313C71.0214 8.90069 70.5484 8.72447 69.9478 8.72447C69.2821 8.72447 68.757 8.93021 68.3716 9.34168C67.9872 9.75316 67.7936 10.3565 67.7936 11.1534V16.4409H65.2681V6.64886H67.7936V7.74526C68.3942 6.83203 69.3672 6.37455 70.7116 6.37455Z" fill="black"></path><path fill-rule="evenodd" clip-rule="evenodd" d="M4.27266 12.2479C5.92081 11.4519 7.05859 9.76429 7.05859 7.81021C7.05859 5.09135 4.85499 2.8864 2.13585 2.8864C1.37036 2.8864 0.645719 3.06176 0 3.37253L4.27266 12.2479ZM24.2891 14.3296L22.5324 17.979C20.1882 16.8479 17.5594 16.2142 14.7821 16.2142C12.0057 16.2142 9.37597 16.8479 7.03264 17.979L5.27596 14.3296C8.15132 12.9415 11.3764 12.1646 14.7829 12.1646C18.1886 12.1646 21.4129 12.9424 24.2891 14.3296ZM27.4274 2.8864C24.7083 2.8864 22.5046 5.09135 22.5046 7.81021C22.5046 9.76429 23.6425 11.4519 25.2907 12.2479L29.5633 3.3734C28.9176 3.06176 28.1929 2.8864 27.4274 2.8864ZM9.85936 4.92381C9.85936 7.64267 12.0638 9.84762 14.7821 9.84762C17.5012 9.84762 19.7048 7.64267 19.7048 4.92381C19.7048 2.20408 17.5004 0 14.7821 0C12.063 0 9.85936 2.20408 9.85936 4.92381Z" fill="#FF5252"></path></svg>